<svg xmlns="http://www.w3.org/2000/svg" viewBox="0 0 32 32"><g id="cross" aria-labelledby="t-cross d-cross"><title id="t-cross">Cross</title><desc id="d-cross">Two lines crossed diagonally</desc><path d="M13.172,16L0.586,3.414c-0.781-0.781-0.781-2.047,0-2.828c0.78-0.781,2.048-0.781,2.828,0L16,13.172 L28.586,0.586c0.781-0.781,2.047-0.781,2.828,0c0.781,0.781,0.781,2.047,0,2.828L18.828,16l12.586,12.586 c0.781,0.781,0.781,2.047,0,2.828c-0.78,0.781-2.048,0.781-2.828,0L16,18.828L3.414,31.414c-0.781,0.781-2.047,0.781-2.828,0 c-0.781-0.781-0.781-2.047,0-2.828L13.172,16z"/></g></svg>